<?xml version="1.0" encoding="utf-8"?>
<!-- Generator: Adobe Illustrator 21.0.0, SVG Export Plug-In . SVG Version: 6.00 Build 0)  -->
<svg version="1.1" baseProfile="tiny" id="Layer_1" xmlns="http://www.w3.org/2000/svg" xmlns:xlink="http://www.w3.org/1999/xlink"
	 x="0px" y="0px" viewBox="0 0 120 25" xml:space="preserve">
<title>Group 5</title>
<desc>Created with Sketch.</desc>
<g id="Group-5" transform="translate(14.000000, 11.000000)">
	<g id="logo_logo-color">
		<g id="Group">
			<path id="Shape" fill="#FFFFFF" d="M-13.1-4.9l4.7-5.9c0.2-0.2,0.7-0.2,0.9,0l4.6,5.9H-13.1z"/>
			<polygon id="Shape_1_" fill="#FFFFFF" points="-13.1,7.8 -7.9,1.4 -2.8,7.8 			"/>
			<polygon id="Shape_2_" fill="#FDD606" points="-7.9,1.4 -2.9,-4.9 2.3,1.4 			"/>
			<polygon id="Shape_3_" fill="#F9A61A" points="-13.1,-4.9 -7.9,1.4 -2.9,-4.9 			"/>
			<path id="Shape_4_" fill="#FDD606" d="M-13.1,7.8l4.7,5.9c0.2,0.2,0.7,0.2,0.9,0l4.6-5.9L-13.1,7.8L-13.1,7.8z"/>
			<polygon id="Shape_5_" fill="#F9A61A" points="-7.9,1.4 -2.8,7.8 2.3,1.4 			"/>
		</g>
		<g id="Group_1_" transform="translate(24.000000, 0.000000)">
			<path id="Shape_6_" fill="#FFFFFF" d="M-13.2-4.9l4.7-5.9c0.2-0.2,0.6-0.2,0.9,0L-3-4.9H-13.2z"/>
			<polygon id="Shape_7_" fill="#FFFFFF" points="-13.2,7.8 -8.1,1.4 -2.9,7.8 			"/>
			<polygon id="Shape_8_" fill="#FDD606" points="-8.1,1.4 -3,-4.9 2.1,1.4 			"/>
			<polygon id="Shape_9_" fill="#F9A61A" points="-13.2,-4.9 -8.1,1.4 -3,-4.9 			"/>
			<path id="Shape_10_" fill="#FDD606" d="M-13.2,7.8l4.7,5.9c0.2,0.2,0.6,0.2,0.9,0L-3,7.8L-13.2,7.8L-13.2,7.8z"/>
			<polygon id="Shape_11_" fill="#F9A61A" points="-8.1,1.4 -2.9,7.8 2.1,1.4 			"/>
		</g>
		<g id="Group_2_" transform="translate(12.000000, 0.000000)">
			<path id="Shape_12_" fill="#FDD606" d="M-13.1-4.9l4.7-5.9c0.2-0.2,0.7-0.2,0.9,0l4.6,5.9H-13.1z"/>
			<polygon id="Shape_13_" fill="#FDD606" points="-13.1,7.8 -7.9,1.4 -2.9,7.8 			"/>
			<polygon id="Shape_14_" fill="#FFFFFF" points="-7.9,1.4 -2.9,-4.9 2.2,1.4 			"/>
			<polygon id="Shape_15_" fill="#F9A61A" points="-13.1,-4.9 -7.9,1.4 -2.9,-4.9 			"/>
			<path id="Shape_16_" fill="#F9A61A" d="M-13.1,7.8l4.7,5.9c0.2,0.2,0.7,0.2,0.9,0l4.6-5.9L-13.1,7.8L-13.1,7.8z"/>
			<polygon id="Shape_17_" fill="#F9A61A" points="-7.9,1.4 -2.9,7.8 2.2,1.4 			"/>
		</g>
	</g>
	<g id="vi_x2F_logoType_x2F_white" transform="translate(51.000000, 2.000000)">
		<g id="logo_logoType-color">
			<g id="Group_3_">
				<polygon id="Shape_18_" fill="#FFFFFF" points="-22.4,-1.7 -18.5,-10.9 -15.5,-10.9 -11.5,-1.7 -14.7,-1.7 -16.9,-6.7 
					-19.3,-1.7 				"/>
				<path id="Shape_19_" fill="#FFFFFF" d="M-15.5,8.6l1.9,2.2h-3.5L-22.3,5h3.6l1,1.2l2.3-4.4h-7V0.5h3.8v-2.1h1.7
					c0.7,0,1.2,0.5,1.2,1.2v0.9h4L-15.5,8.6z"/>
				<path id="Shape_20_" fill="#FFFFFF" d="M-3.1-9.7l-2,3h4c0.5,0,0.9,0.4,0.9,0.9v11H-3v-9.9c0-0.5-0.4-0.9-0.9-0.9h-3.2
					C-7.6-5.6-8-5.2-8-4.7v10h-2.9L-11-5.8c0-0.5,0.4-0.9,0.9-0.9H-8l1.9-3h-5V-11h10.9v1.3H-3.1z"/>
				<path id="Shape_21_" fill="#FFFFFF" d="M-0.1,10.7h-3.4c0,0-1.9-2-1.9-3.3c-0.1,1.2-2,3.3-2,3.3l-3.4,0.1c0,0,3.4-3.7,4-7.1V-4
					H-4v6.7l0,0C-4.1,5.6-1.1,10.1-0.1,10.7z"/>
			</g>
			<g id="Group_4_" transform="translate(25.200000, 0.000000)">
				<path id="Shape_22_" fill="#FFFFFF" d="M-14,1.5v8.1c0,0.6-0.5,1.1-1.1,1.1H-20V9.6h2c0.5,0,0.9-0.4,0.9-0.9V2.4
					c0-0.5-0.4-0.9-0.9-0.9h-3.2c-0.6,0-1.1-0.5-1.1-1.1v-7.7h3c0,0,0,6.2,0,6.7c0,0.6,0.4,1,0.8,1h0.5v-9.5c0-0.3-0.2-0.5-0.5-0.5
					h-3.8v-1.1h6.2c0.7,0,1.1,0.5,1.1,1.1v10C-14.3,0.4-14,1-14,1.5z"/>
				<path id="Shape_23_" fill="#FFFFFF" d="M-18.1,6.4h-2.5c-0.9,0-1.7-0.8-1.7-1.7l0,0h4.2C-18.1,4.7-18.1,6.4-18.1,6.4z"/>
				<path id="Shape_24_" fill="#FFFFFF" d="M-10.4-11c0,0-1.7,3.9-2.1,4.7c-0.4,0.8-0.1,1.7,1,1.7s9.1,0,9.8,0s1.2-1,0.8-1.7
					s-1.6-3.3-1.6-3.3h-3.2c0,0,1.2,2.4,1.4,2.7c0.2,0.4,0.1,1-0.5,1s-4,0-4.1,0C-9.3-5.9-9.3-6.4-9-7s1.7-4,1.7-4H-10.4z"/>
				<polygon id="Shape_25_" fill="#FFFFFF" points="-10,0.2 -13.1,0.2 -11,-3.8 -8,-3.8 				"/>
				<path id="Shape_26_" fill="#FFFFFF" d="M-3.8,7.1c1.4-1,2.7-3.2,3.2-4.1C-0.2,2.1-0.5,1.6-1,1.6h-7.3l0.7-1.5h-3l-2.7,5.8h3
					c0,0,1.2,1.3,1.3,1.4c-0.6,0.3-3.7,1.1-3.7,1.1V11c1.6,0,6.1-1.9,6.4-2.1c0.4,0.1,4.3,2,6.1,2V8.4C-0.9,8.3-2.9,7.6-3.8,7.1z
					 M-6.5,5.4c-0.8-0.6-2.3-2.6-2.3-2.6l4.9-0.1C-3.9,2.7-5.6,4.8-6.5,5.4z"/>
				<polygon id="Shape_27_" fill="#FFFFFF" points="-3.2,0.2 -0.1,0.2 -2.2,-3.8 -5.2,-3.8 				"/>
			</g>
			<g id="Group_5_" transform="translate(49.200000, 0.000000)">
				<polygon id="Shape_28_" fill="#FFFFFF" points="-17.1,-6.8 -20.2,-6.8 -22.1,-10.9 -19,-10.9 				"/>
				<path id="Shape_29_" fill="#FFFFFF" d="M-22.1-5.3V-4h1.9V7.3c0,1-1.1,3.4-1.6,3.6h3.6c0.4-0.4,1-2,1-2.1c0.3,0.8,1.3,2,3.5,2
					s13.3,0,13.3,0V9.5h-13.4c-1.3,0-3.4-1.1-3.4-2.8s0-10.9,0-10.9c0-0.4-0.4-1-1-1C-18.6-5.3-22.1-5.3-22.1-5.3z"/>
				<path id="Shape_30_" fill="#FFFFFF" d="M-15.7-6.8h5.9V-11h3.5v4.1h6.1v1.5h-6.1v2.7C-6.2-1-3.1,5.4-0.5,8c-0.7,0-3.7,0-3.7,0
					C-5.5,6.4-7.9,2.6-8,2.2c-0.2,0.4-2.4,4.3-3.7,5.7c0-0.1-3.8,0-3.8,0s2-2.4,3.1-4.3s2.8-5.2,2.8-6.4s0-2.6,0-2.6h-6.1L-15.7-6.8
					z"/>
			</g>
		</g>
	</g>
</g>
</svg>
